PathFileType	4	(X/Y/Z)	c:/Users/goper/Files/vsCode/490R/osim_files/C05/C05_Fast_02.trc
DataRate	CameraRate	NumFrames	NumMarkers	Units                	OrigDataRate	OrigDataStartFrame	OrigNumFrames
250.00	250.00	8	36	mm	250.0	2188	3500
                Frame#	Time	LPSIS			LASIS			LTH1			LTH2			LTH3			LTH4			LLFE			LMFE			LSH1			LSH2			LSH3			LSH4			LLMAL			LMMAL			LCAL			LMTP5			LTOE			LMTP1			RPSIS			RASIS			RTH1			RTH2			RTH3			RTH4			RLFE			RMFE			RSH1			RSH2			RSH3			RSH4			RLMAL			RMMAL			RCAL			RMTP1			RTOE			RMTP5		
		X1	Y1	Z1	X2	Y2	Z2	X3	Y3	Z3	X4	Y4	Z4	X5	Y5	Z5	X6	Y6	Z6	X7	Y7	Z7	X8	Y8	Z8	X9	Y9	Z9	X10	Y10	Z10	X11	Y11	Z11	X12	Y12	Z12	X13	Y13	Z13	X14	Y14	Z14	X15	Y15	Z15	X16	Y16	Z16	X17	Y17	Z17	X18	Y18	Z18	X19	Y19	Z19	X20	Y20	Z20	X21	Y21	Z21	X22	Y22	Z22	X23	Y23	Z23	X24	Y24	Z24	X25	Y25	Z25	X26	Y26	Z26	X27	Y27	Z27	X28	Y28	Z28	X29	Y29	Z29	X30	Y30	Z30	X31	Y31	Z31	X32	Y32	Z32	X33	Y33	Z33	X34	Y34	Z34	X35	Y35	Z35	X36	Y36	Z36

2188	8.74800	-1953.07202	1056.75928	352.83368	-2155.06836	1024.04675	408.17767	-2039.74500	707.35120	453.25528	-2046.60413	645.14172	441.24860	-2115.50000	710.31982	445.11697	-2113.11450	649.65100	435.10513	-2078.86304	540.59601	415.66727	-2068.40234	536.47406	298.94406	-1961.98657	373.93811	417.07846	-1960.49792	331.25281	411.95245	-2024.37451	363.72476	426.85300	-2012.76001	322.36514	418.48553	-1950.15649	105.65939	371.19214	-1980.23877	117.65800	289.49530	-1891.32556	78.55458	318.35236	-2085.40430	45.26014	406.39655	-2126.86597	68.08371	347.58911	-2111.02515	54.99351	297.39529	-1953.15759	1055.72644	243.94193	-2142.78857	1025.32178	179.44327	-2171.64526	685.29883	123.02574	-2212.48901	637.96460	134.47844	-2234.12964	726.90668	118.24940	-2266.43750	673.83746	127.95093	0.00000	0.00000	0.00000	-2289.86279	577.36682	145.83124	-2176.44312	449.44525	133.64584	-2166.15918	402.15176	136.30678	-2234.61890	427.23349	131.25018	-2216.89966	384.30167	135.01454	-2107.37500	171.91608	165.26309	-2140.08667	169.46013	246.69931	-2041.88538	156.74733	220.88559	-2239.50854	65.80903	220.53665	-2259.40503	88.75881	171.50299	-2199.30493	73.17261	115.08542
2189	8.75200	-1958.32874	1056.65552	352.45963	-2159.92334	1023.72693	408.42349	-2042.12292	707.68353	453.20941	-2048.62744	645.45416	441.33148	-2117.96460	710.09418	445.25903	-2115.20093	649.51495	435.39139	-2080.01807	540.66766	416.14804	-2069.98413	536.22845	299.22284	-1962.54565	374.22189	417.08511	-1960.93750	331.71133	411.70163	-2024.91797	363.84814	426.95111	-2013.15247	322.60760	418.32297	-1950.32751	105.83810	371.10629	-1980.39709	117.74985	289.43405	-1891.40613	78.82626	318.28333	-2085.28955	45.04576	406.48648	-2126.95117	68.00477	347.57330	-2111.22852	54.97818	297.41849	-1958.49524	1055.73303	243.63023	-2148.29004	1025.43567	179.69016	-2178.32080	685.82275	122.43252	-2219.16333	638.47339	134.13324	-2240.65845	727.72369	118.18723	-2273.10645	674.81335	128.07021	0.00000	0.00000	0.00000	-2296.54639	578.36914	145.75322	-2185.60083	447.39987	133.33540	-2176.46777	399.94067	135.99536	-2244.15991	426.68649	130.84181	-2227.86890	383.31870	134.66353	-2123.59521	168.15526	164.74915	-2157.06616	166.35890	246.29897	-2059.10498	151.06744	220.88821	-2259.52222	65.90218	219.64583	-2278.10303	89.22616	170.22748	-2218.28101	72.15422	114.08529
2190	8.75600	-1963.53528	1056.54468	352.10059	-2164.94141	1023.44977	408.68048	-2044.53369	708.00812	453.13062	-2050.71362	645.77728	441.35516	-2120.72852	709.87415	445.12216	-2117.24219	649.27893	435.54254	-2081.25903	540.64832	416.67944	-2071.57861	536.07208	299.41397	-1963.07117	374.58997	417.08575	-1961.42761	332.05115	411.69165	-2025.45886	364.03391	427.12152	-2013.59998	322.83191	418.48474	-1950.49390	106.02673	371.01550	-1980.58960	117.84724	289.35883	-1891.55273	79.10934	318.17770	-2085.38916	45.22773	406.36755	-2127.08911	67.92566	347.57233	-2111.29810	54.92418	297.40591	-1963.82251	1055.65564	243.34828	-2153.71240	1025.29980	179.90068	-2184.87891	686.24084	121.86379	-2225.26807	638.48657	134.27119	-2247.05566	728.44971	118.11292	-2279.66479	675.62872	128.19322	0.00000	0.00000	0.00000	-2303.10156	579.17017	145.70715	-2193.71948	445.66742	132.84769	-2186.92822	397.60867	135.73921	-2253.60962	426.13480	130.40700	-2238.08105	382.39844	134.11044	-2139.93628	164.71562	164.44037	-2174.10693	163.33344	245.84743	-2076.31860	145.54935	220.83131	-2279.16992	65.78239	218.46442	-2296.98340	89.77949	169.00745	-2237.33618	71.31904	113.07748
2191	8.76000	-1968.58752	1056.35742	351.71747	-2169.90161	1022.98395	408.89426	-2047.00024	708.25610	453.01486	-2052.72095	645.89966	441.30984	-2123.25684	709.60175	445.20889	-2119.32227	649.01337	435.66214	-2081.50220	540.39642	416.32788	-2073.17017	535.79663	299.63953	-1963.62830	374.88663	417.09015	-1961.90283	332.15686	411.84790	-2025.92798	364.19199	427.26453	-2014.05640	322.96750	418.82648	-1950.61694	106.20709	370.92139	-1980.78613	117.97832	289.26959	-1891.70447	79.38116	318.10577	-2085.48657	45.26000	406.39066	-2127.18994	67.79737	347.59882	-2111.38574	54.82747	297.39328	-1969.05029	1055.59766	243.03769	-2159.16919	1025.18823	180.08585	-2191.29004	686.60394	121.24967	-2231.68335	639.02167	134.00632	-2253.35352	729.04999	118.02492	-2286.14185	676.30994	128.24767	0.00000	0.00000	0.00000	-2309.46948	579.86621	145.62930	-2204.01221	442.98129	132.73454	-2197.31934	395.22650	135.43562	-2263.22070	425.48141	130.06178	-2248.82373	381.29639	133.76164	-2156.69922	161.11871	164.08139	-2191.36621	160.62311	245.39992	-2093.74341	140.07904	220.69191	-2298.48047	65.54927	216.94922	-2315.96265	90.75938	167.95360	-2256.39160	70.63196	112.10799
2192	8.76400	-1973.73669	1056.11780	351.41708	-2174.81543	1022.53174	409.13254	-2050.32178	708.59216	453.31110	-2054.58008	645.71387	441.47888	-2125.75293	709.31763	445.29608	-2121.39331	648.82080	435.82828	-2082.55127	540.34570	416.67673	-2074.59570	535.55603	299.85092	-1964.20032	375.18674	417.07269	-1962.33582	332.42462	411.77484	-2026.36633	364.35757	427.44910	-2014.42285	323.08289	418.95892	-1950.78979	106.39602	370.85400	-1980.98145	118.11061	289.21283	-1891.83411	79.65337	318.03262	-2085.45630	45.22332	406.37430	-2127.26270	67.67371	347.61258	-2111.50488	54.71600	297.44785	-1974.39722	1055.43188	242.70378	-2164.63623	1024.96387	180.27798	-2197.63306	686.89136	120.75729	-2238.77246	640.00873	133.24010	-2259.58496	729.46234	117.93555	-2292.44897	676.88678	128.37454	0.00000	0.00000	0.00000	-2315.73706	580.39935	145.51768	-2213.13696	440.61121	132.39459	-2207.91821	392.66238	135.01454	-2272.78979	424.74023	129.65604	-2259.53809	380.20544	133.34024	-2173.59106	157.63878	163.73131	-2208.50073	157.85909	244.91490	-2111.40430	134.75624	220.52907	-2318.39502	66.14699	216.09622	-2334.70923	91.62888	166.85080	-2275.47876	70.13703	111.12054
2193	8.76800	-1978.89331	1055.90479	351.07422	-2179.87036	1022.06091	409.31195	-2051.90112	708.73499	452.86578	-2056.84814	646.10889	441.39130	-2128.17017	708.99695	445.42624	-2123.46948	648.47235	435.95276	-2083.68286	540.22601	417.04575	-2076.11426	535.34906	300.03821	-1964.78589	375.48764	417.06747	-1962.74316	332.84033	411.76123	-2026.88916	364.49744	427.59100	-2014.75525	323.23175	419.07886	-1950.96033	106.57420	370.79349	-1981.21448	118.21811	289.14835	-1892.00574	79.85096	317.97263	-2085.44800	45.20685	406.38257	-2127.36523	67.58154	347.65536	-2114.95239	56.70608	297.96411	-1979.78992	1055.16980	242.42075	-2170.13306	1024.68066	180.43831	-2203.85889	686.99890	120.31443	-2247.19604	640.45898	133.53464	-2265.11084	729.64001	117.81854	-2298.67896	677.31372	128.45782	0.00000	0.00000	0.00000	-2321.82666	580.76508	145.40497	-2222.28638	438.19604	132.08548	-2217.97046	390.21368	134.70923	-2282.24731	423.98203	129.24812	-2271.01172	379.13068	133.17938	-2190.47412	154.26704	163.30972	-2225.61816	155.17329	244.50543	-2128.88013	129.54114	220.32652	-2337.96777	66.59174	214.98376	-2353.33350	92.73595	165.84552	-2294.70483	69.80089	110.20840
2194	8.77200	-1984.15564	1055.58984	350.71399	-2184.84668	1021.49847	409.50012	-2054.34302	708.88019	452.78110	-2058.98901	646.35590	441.45999	-2131.29126	708.72583	445.56125	-2125.57861	648.14050	436.13025	-2084.89160	540.11230	417.39346	-2077.58569	535.12872	300.25186	-1965.32812	375.86179	417.03183	-1963.19507	333.04605	411.70743	-2027.35840	364.61136	427.71774	-2015.18420	323.43008	419.23422	-1951.14075	106.77876	370.70328	-1981.44250	118.33727	289.09723	-1892.11780	80.13171	317.89951	-2085.51758	45.18086	406.38840	-2127.46899	67.50694	347.68417	-2115.04077	56.59275	297.97583	-1985.26074	1054.88440	242.06947	-2175.58789	1024.34973	180.59286	-2209.93628	687.03815	119.86536	0.00000	0.00000	0.00000	-2273.26367	730.60992	117.86081	-2304.76050	677.54803	128.52052	0.00000	0.00000	0.00000	-2327.72778	581.01001	145.27966	-2231.23804	435.77548	131.72539	-2228.73462	387.59125	134.33293	-2292.17285	423.23602	129.07982	-2281.62646	377.93051	132.71432	-2207.48267	151.06703	162.91832	-2242.88940	152.65338	244.01056	-2147.11890	124.42600	220.11792	-2357.30933	67.21609	214.01578	-2372.12939	93.98301	164.85774	-2313.71680	69.62126	109.19793
2195	8.77600	-1989.28601	1055.28674	350.26953	-2190.70068	1021.25604	409.92984	-2057.00366	709.07471	452.72177	-2061.01611	646.09357	441.56207	-2133.29541	708.31128	445.51886	-2127.77686	647.86426	436.28516	-2086.07910	540.08057	417.62338	-2079.19263	534.88220	300.52133	-1965.87024	376.20398	416.96616	-1963.69922	332.94995	410.90222	-2027.44543	364.50479	428.58054	-2015.64038	323.68994	419.42188	-1951.30750	106.96276	370.62900	-1981.61926	118.46594	289.06183	-1892.26892	80.35540	317.86743	-2085.39453	44.93661	406.57239	-2127.28003	66.96181	347.22617	-2115.10718	56.49749	298.01035	-1990.61035	1054.59424	241.74196	-2181.08276	1023.97339	180.71420	-2215.88086	686.97485	119.44798	0.00000	0.00000	0.00000	-2279.13770	730.59753	117.68584	-2310.13501	677.61438	128.31094	0.00000	0.00000	0.00000	-2333.48828	581.03717	145.16193	-2240.20801	433.28464	131.42284	-2238.87744	385.02737	133.96271	-2301.51416	422.35742	128.61633	-2292.69556	376.89078	132.23746	-2224.57251	147.91971	162.44820	-2260.07935	150.28886	243.51852	-2164.87012	119.57965	219.76746	-2376.80664	67.85532	212.83826	-2390.81543	95.55795	164.07465	-2332.59375	69.87697	108.26101
